<?xml version="1.0" encoding="UTF-8" standalone="no"?>
<!DOCTYPE svg PUBLIC "-//W3C//DTD SVG 1.1//EN"
 "http://www.w3.org/Graphics/SVG/1.1/DTD/svg11.dtd">
<!-- Generated by graphviz version 2.38.0 (20140413.2041)
 -->
<!-- Title: %3 Pages: 1 -->
<svg width="819pt" height="421pt"
 viewBox="0.00 0.00 818.88 421.07" xmlns="http://www.w3.org/2000/svg" xmlns:xlink="http://www.w3.org/1999/xlink">
<g id="graph0" class="graph" transform="scale(1 1) rotate(0) translate(4 417.073)">
<title>%3</title>
<polygon fill="white" stroke="none" points="-4,4 -4,-417.073 814.88,-417.073 814.88,4 -4,4"/>
<text text-anchor="middle" x="405.44" y="-7.8" font-family="Times,serif" font-size="14.00">Router 172.22.120.3</text>
<!-- table_default -->
<g id="node1" class="node"><title>table_default</title>
<ellipse fill="none" stroke="red" cx="132.936" cy="-121.87" rx="57.3905" ry="18"/>
<text text-anchor="middle" x="132.936" y="-118.17" font-family="Times,serif" font-size="14.00">table_default</text>
</g>
<!-- kernel_kernel1 -->
<g id="node2" class="node"><title>kernel_kernel1</title>
<ellipse fill="none" stroke="blue" cx="132.936" cy="-41" rx="63.0888" ry="18"/>
<text text-anchor="middle" x="132.936" y="-37.3" font-family="Times,serif" font-size="14.00">kernel_kernel1</text>
</g>
<!-- table_default&#45;&gt;kernel_kernel1 -->
<g id="edge1" class="edge"><title>table_default&#45;&gt;kernel_kernel1</title>
<path fill="none" stroke="black" d="M127.258,-103.756C126.163,-93.6279 125.907,-80.57 126.49,-69.0722"/>
<polygon fill="black" stroke="black" points="129.981,-69.32 127.261,-59.0802 123.002,-68.7812 129.981,-69.32"/>
</g>
<!-- kernel_kernel1&#45;&gt;table_default -->
<g id="edge2" class="edge"><title>kernel_kernel1&#45;&gt;table_default</title>
<path fill="none" stroke="black" d="M138.611,-59.0802C139.708,-69.2023 139.965,-82.2587 139.384,-93.76"/>
<polygon fill="black" stroke="black" points="135.893,-93.5172 138.614,-103.756 142.872,-94.0546 135.893,-93.5172"/>
</g>
<!-- table_prauscher -->
<g id="node3" class="node"><title>table_prauscher</title>
<ellipse fill="none" stroke="red" cx="395.936" cy="-211.61" rx="68.4888" ry="18"/>
<text text-anchor="middle" x="395.936" y="-207.91" font-family="Times,serif" font-size="14.00">table_prauscher</text>
</g>
<!-- table_prauscher&#45;&gt;table_default -->
<g id="edge3" class="edge"><title>table_prauscher&#45;&gt;table_default</title>
<path fill="none" stroke="black" d="M352.083,-197.628C312.189,-185.614 251.794,-166.917 199.936,-148.74 192.24,-146.042 184.103,-143.035 176.252,-140.051"/>
<polygon fill="black" stroke="black" points="177.458,-136.765 166.868,-136.446 174.948,-143.299 177.458,-136.765"/>
</g>
<!-- ospf_ospf1
172.22.120.0: tun.sheldon tun.rajesh tun.amy -->
<g id="node4" class="node"><title>ospf_ospf1
172.22.120.0: tun.sheldon tun.rajesh tun.amy</title>
<ellipse fill="none" stroke="blue" cx="395.936" cy="-121.87" rx="187.267" ry="26.7407"/>
<text text-anchor="middle" x="395.936" y="-125.67" font-family="Times,serif" font-size="14.00">ospf_ospf1</text>
<text text-anchor="middle" x="395.936" y="-110.67" font-family="Times,serif" font-size="14.00">172.22.120.0: tun.sheldon tun.rajesh tun.amy</text>
</g>
<!-- table_prauscher&#45;&gt;ospf_ospf1
172.22.120.0: tun.sheldon tun.rajesh tun.amy -->
<g id="edge4" class="edge"><title>table_prauscher&#45;&gt;ospf_ospf1
172.22.120.0: tun.sheldon tun.rajesh tun.amy</title>
<path fill="none" stroke="black" d="M390.432,-193.276C389.372,-183.464 388.988,-170.817 389.281,-158.954"/>
<polygon fill="black" stroke="black" points="392.784,-158.962 389.714,-148.822 385.791,-158.664 392.784,-158.962"/>
</g>
<!-- ospf_ospf1
172.22.120.0: tun.sheldon tun.rajesh tun.amy&#45;&gt;table_prauscher -->
<g id="edge5" class="edge"><title>ospf_ospf1
172.22.120.0: tun.sheldon tun.rajesh tun.amy&#45;&gt;table_prauscher</title>
<path fill="none" stroke="black" d="M402.158,-148.822C402.828,-159.578 402.86,-172.07 402.256,-182.995"/>
<polygon fill="black" stroke="black" points="398.742,-183.03 401.44,-193.276 405.72,-183.584 398.742,-183.03"/>
</g>
<!-- device_device1 -->
<g id="node5" class="node"><title>device_device1</title>
<ellipse fill="none" stroke="blue" cx="743.936" cy="-343.777" rx="66.8882" ry="18"/>
<text text-anchor="middle" x="743.936" y="-340.077" font-family="Times,serif" font-size="14.00">device_device1</text>
</g>
<!-- static_static1
130.83.0.0/16 via 130.83.7.254 -->
<g id="node6" class="node"><title>static_static1
130.83.0.0/16 via 130.83.7.254</title>
<ellipse fill="none" stroke="blue" cx="132.936" cy="-211.61" rx="132.872" ry="26.7407"/>
<text text-anchor="middle" x="132.936" y="-215.41" font-family="Times,serif" font-size="14.00">static_static1</text>
<text text-anchor="middle" x="132.936" y="-200.41" font-family="Times,serif" font-size="14.00">130.83.0.0/16 via 130.83.7.254</text>
</g>
<!-- static_static1
130.83.0.0/16 via 130.83.7.254&#45;&gt;table_default -->
<g id="edge6" class="edge"><title>static_static1
130.83.0.0/16 via 130.83.7.254&#45;&gt;table_default</title>
<path fill="none" stroke="black" d="M132.936,-184.285C132.936,-173.534 132.936,-161.099 132.936,-150.242"/>
<polygon fill="black" stroke="black" points="136.436,-150.031 132.936,-140.031 129.436,-150.031 136.436,-150.031"/>
</g>
<!-- direct_direct1
tun.sheldon
tun.rajesh
tun.amy
br&#45;lan
tun.server -->
<g id="node7" class="node"><title>direct_direct1
tun.sheldon
tun.rajesh
tun.amy
br&#45;lan
tun.server</title>
<ellipse fill="none" stroke="blue" cx="279.936" cy="-343.777" rx="66.4361" ry="69.0935"/>
<text text-anchor="middle" x="279.936" y="-377.577" font-family="Times,serif" font-size="14.00">direct_direct1</text>
<text text-anchor="middle" x="279.936" y="-362.577" font-family="Times,serif" font-size="14.00">tun.sheldon</text>
<text text-anchor="middle" x="279.936" y="-347.577" font-family="Times,serif" font-size="14.00">tun.rajesh</text>
<text text-anchor="middle" x="279.936" y="-332.577" font-family="Times,serif" font-size="14.00">tun.amy</text>
<text text-anchor="middle" x="279.936" y="-317.577" font-family="Times,serif" font-size="14.00">br&#45;lan</text>
<text text-anchor="middle" x="279.936" y="-302.577" font-family="Times,serif" font-size="14.00">tun.server</text>
</g>
<!-- direct_direct1
tun.sheldon
tun.rajesh
tun.amy
br&#45;lan
tun.server&#45;&gt;table_prauscher -->
<g id="edge7" class="edge"><title>direct_direct1
tun.sheldon
tun.rajesh
tun.amy
br&#45;lan
tun.server&#45;&gt;table_prauscher</title>
<path fill="none" stroke="black" d="M324.785,-292.451C341.724,-273.443 360.242,-252.663 374.14,-237.069"/>
<polygon fill="black" stroke="black" points="376.913,-239.217 380.953,-229.423 371.687,-234.56 376.913,-239.217"/>
</g>
<!-- static_static2
172.22.153.64/26 via 130.83.5.196 -->
<g id="node8" class="node"><title>static_static2
172.22.153.64/26 via 130.83.5.196</title>
<ellipse fill="none" stroke="blue" cx="511.936" cy="-343.777" rx="147.156" ry="26.7407"/>
<text text-anchor="middle" x="511.936" y="-347.577" font-family="Times,serif" font-size="14.00">static_static2</text>
<text text-anchor="middle" x="511.936" y="-332.577" font-family="Times,serif" font-size="14.00">172.22.153.64/26 via 130.83.5.196</text>
</g>
<!-- static_static2
172.22.153.64/26 via 130.83.5.196&#45;&gt;table_prauscher -->
<g id="edge8" class="edge"><title>static_static2
172.22.153.64/26 via 130.83.5.196&#45;&gt;table_prauscher</title>
<path fill="none" stroke="black" d="M489.018,-317.06C468.228,-293.731 437.804,-259.592 417.459,-236.762"/>
<polygon fill="black" stroke="black" points="419.982,-234.332 410.716,-229.195 414.756,-238.989 419.982,-234.332"/>
</g>
</g>
</svg>
