<?xml version="1.0" encoding="UTF-8" standalone="no"?>
<!DOCTYPE svg PUBLIC "-//W3C//DTD SVG 1.1//EN"
 "http://www.w3.org/Graphics/SVG/1.1/DTD/svg11.dtd">
<!-- Generated by graphviz version 2.38.0 (20140413.2041)
 -->
<!-- Title: %3 Pages: 1 -->
<svg width="2142pt" height="434pt"
 viewBox="0.00 0.00 2142.16 434.33" xmlns="http://www.w3.org/2000/svg" xmlns:xlink="http://www.w3.org/1999/xlink">
<g id="graph0" class="graph" transform="scale(1 1) rotate(0) translate(4 430.333)">
<title>%3</title>
<polygon fill="white" stroke="none" points="-4,4 -4,-430.333 2138.16,-430.333 2138.16,4 -4,4"/>
<text text-anchor="middle" x="1067.08" y="-7.8" font-family="Times,serif" font-size="14.00">Router 172.22.120.2</text>
<!-- table_default -->
<g id="node1" class="node"><title>table_default</title>
<ellipse fill="none" stroke="red" cx="509.082" cy="-136.87" rx="57.3905" ry="18"/>
<text text-anchor="middle" x="509.082" y="-133.17" font-family="Times,serif" font-size="14.00">table_default</text>
</g>
<!-- kernel_kernel1 -->
<g id="node2" class="node"><title>kernel_kernel1</title>
<ellipse fill="none" stroke="blue" cx="509.082" cy="-41" rx="63.0888" ry="18"/>
<text text-anchor="middle" x="509.082" y="-37.3" font-family="Times,serif" font-size="14.00">kernel_kernel1</text>
</g>
<!-- table_default&#45;&gt;kernel_kernel1 -->
<g id="edge1" class="edge"><title>table_default&#45;&gt;kernel_kernel1</title>
<path fill="none" stroke="black" d="M509.082,-118.653C509.082,-104.891 509.082,-85.3397 509.082,-69.4271"/>
<polygon fill="black" stroke="black" points="512.582,-69.108 509.082,-59.1081 505.582,-69.1081 512.582,-69.108"/>
<text text-anchor="middle" x="528.582" y="-80.8" font-family="Times,serif" font-size="14.00">filtered</text>
</g>
<!-- table_prauscher -->
<g id="node3" class="node"><title>table_prauscher</title>
<ellipse fill="none" stroke="red" cx="217.082" cy="-232.74" rx="68.4888" ry="18"/>
<text text-anchor="middle" x="217.082" y="-229.04" font-family="Times,serif" font-size="14.00">table_prauscher</text>
</g>
<!-- table_prauscher&#45;&gt;table_default -->
<g id="edge2" class="edge"><title>table_prauscher&#45;&gt;table_default</title>
<path fill="none" stroke="black" d="M262.451,-219.263C308.332,-206.371 381.123,-185.165 443.082,-163.74 450.606,-161.138 458.542,-158.2 466.2,-155.26"/>
<polygon fill="black" stroke="black" points="467.652,-158.451 475.702,-151.562 465.113,-151.928 467.652,-158.451"/>
</g>
<!-- ospf_ospf1
172.22.120.0: tun.sheldon tun.howard tun.damogran -->
<g id="node4" class="node"><title>ospf_ospf1
172.22.120.0: tun.sheldon tun.howard tun.damogran</title>
<ellipse fill="none" stroke="blue" cx="217.082" cy="-136.87" rx="217.164" ry="26.7407"/>
<text text-anchor="middle" x="217.082" y="-140.67" font-family="Times,serif" font-size="14.00">ospf_ospf1</text>
<text text-anchor="middle" x="217.082" y="-125.67" font-family="Times,serif" font-size="14.00">172.22.120.0: tun.sheldon tun.howard tun.damogran</text>
</g>
<!-- table_prauscher&#45;&gt;ospf_ospf1
172.22.120.0: tun.sheldon tun.howard tun.damogran -->
<g id="edge3" class="edge"><title>table_prauscher&#45;&gt;ospf_ospf1
172.22.120.0: tun.sheldon tun.howard tun.damogran</title>
<path fill="none" stroke="black" d="M211.718,-214.523C210.482,-203.219 210.072,-188.009 210.49,-174.118"/>
<polygon fill="black" stroke="black" points="213.999,-173.991 210.97,-163.839 207.007,-173.665 213.999,-173.991"/>
</g>
<!-- ospf_ospf1
172.22.120.0: tun.sheldon tun.howard tun.damogran&#45;&gt;table_prauscher -->
<g id="edge4" class="edge"><title>ospf_ospf1
172.22.120.0: tun.sheldon tun.howard tun.damogran&#45;&gt;table_prauscher</title>
<path fill="none" stroke="black" d="M223.194,-163.839C224.016,-176.466 224.044,-191.64 223.277,-204.439"/>
<polygon fill="black" stroke="black" points="219.779,-204.269 222.446,-214.523 226.755,-204.844 219.779,-204.269"/>
</g>
<!-- table_ext_dn42 -->
<g id="node5" class="node"><title>table_ext_dn42</title>
<ellipse fill="none" stroke="red" cx="1311.08" cy="-232.74" rx="66.0889" ry="18"/>
<text text-anchor="middle" x="1311.08" y="-229.04" font-family="Times,serif" font-size="14.00">table_ext_dn42</text>
</g>
<!-- table_ext_dn42&#45;&gt;table_default -->
<g id="edge5" class="edge"><title>table_ext_dn42&#45;&gt;table_default</title>
<path fill="none" stroke="black" d="M1245.25,-229.934C1141.84,-226.561 935.162,-217.655 761.082,-196.74 677.724,-186.725 655.894,-186.505 575.082,-163.74 567.081,-161.486 558.708,-158.621 550.716,-155.624"/>
<polygon fill="black" stroke="black" points="551.796,-152.289 541.207,-151.935 549.264,-158.815 551.796,-152.289"/>
<text text-anchor="middle" x="789.582" y="-185.54" font-family="Times,serif" font-size="14.00">filter dn42</text>
</g>
<!-- bgp_dn42_sheldon
neighbor 172.22.120.1 as 64720 -->
<g id="node6" class="node"><title>bgp_dn42_sheldon
neighbor 172.22.120.1 as 64720</title>
<ellipse fill="none" stroke="blue" cx="1373.08" cy="-136.87" rx="137.358" ry="26.7407"/>
<text text-anchor="middle" x="1373.08" y="-140.67" font-family="Times,serif" font-size="14.00">bgp_dn42_sheldon</text>
<text text-anchor="middle" x="1373.08" y="-125.67" font-family="Times,serif" font-size="14.00">neighbor 172.22.120.1 as 64720</text>
</g>
<!-- table_ext_dn42&#45;&gt;bgp_dn42_sheldon
neighbor 172.22.120.1 as 64720 -->
<g id="edge6" class="edge"><title>table_ext_dn42&#45;&gt;bgp_dn42_sheldon
neighbor 172.22.120.1 as 64720</title>
<path fill="none" stroke="black" d="M1307.76,-214.588C1306.66,-204.47 1306.83,-191.732 1312.08,-181.74 1314.39,-177.352 1317.35,-173.299 1320.73,-169.58"/>
<polygon fill="black" stroke="black" points="1323.39,-171.873 1328.16,-162.413 1318.54,-166.834 1323.39,-171.873"/>
<text text-anchor="middle" x="1331.58" y="-185.54" font-family="Times,serif" font-size="14.00">filtered</text>
</g>
<!-- bgp_dn42_mwd
neighbor 172.23.227.1 as 4242420002 -->
<g id="node7" class="node"><title>bgp_dn42_mwd
neighbor 172.23.227.1 as 4242420002</title>
<ellipse fill="none" stroke="blue" cx="745.082" cy="-136.87" rx="161.441" ry="26.7407"/>
<text text-anchor="middle" x="745.082" y="-140.67" font-family="Times,serif" font-size="14.00">bgp_dn42_mwd</text>
<text text-anchor="middle" x="745.082" y="-125.67" font-family="Times,serif" font-size="14.00">neighbor 172.23.227.1 as 4242420002</text>
</g>
<!-- table_ext_dn42&#45;&gt;bgp_dn42_mwd
neighbor 172.23.227.1 as 4242420002 -->
<g id="edge7" class="edge"><title>table_ext_dn42&#45;&gt;bgp_dn42_mwd
neighbor 172.23.227.1 as 4242420002</title>
<path fill="none" stroke="black" d="M1245.3,-229.733C1138.51,-225.951 932.312,-216.327 862.082,-196.74 838.614,-190.195 814.295,-178.816 793.949,-167.797"/>
<polygon fill="black" stroke="black" points="795.636,-164.73 785.193,-162.945 792.243,-170.853 795.636,-164.73"/>
<text text-anchor="middle" x="881.582" y="-185.54" font-family="Times,serif" font-size="14.00">filtered</text>
</g>
<!-- bgp_dn42_sammy
neighbor 172.22.247.128 as 76175 -->
<g id="node8" class="node"><title>bgp_dn42_sammy
neighbor 172.22.247.128 as 76175</title>
<ellipse fill="none" stroke="blue" cx="1071.08" cy="-136.87" rx="147.156" ry="26.7407"/>
<text text-anchor="middle" x="1071.08" y="-140.67" font-family="Times,serif" font-size="14.00">bgp_dn42_sammy</text>
<text text-anchor="middle" x="1071.08" y="-125.67" font-family="Times,serif" font-size="14.00">neighbor 172.22.247.128 as 76175</text>
</g>
<!-- table_ext_dn42&#45;&gt;bgp_dn42_sammy
neighbor 172.22.247.128 as 76175 -->
<g id="edge8" class="edge"><title>table_ext_dn42&#45;&gt;bgp_dn42_sammy
neighbor 172.22.247.128 as 76175</title>
<path fill="none" stroke="black" d="M1245.29,-230.48C1206.86,-227.191 1158.68,-218.489 1121.08,-196.74 1110.49,-190.612 1101.09,-181.371 1093.39,-172.016"/>
<polygon fill="black" stroke="black" points="1095.95,-169.609 1087.07,-163.841 1090.41,-173.892 1095.95,-169.609"/>
<text text-anchor="middle" x="1140.58" y="-185.54" font-family="Times,serif" font-size="14.00">filtered</text>
</g>
<!-- bgp_dn42_xuu
neighbor 172.22.141.142 as 64737 -->
<g id="node9" class="node"><title>bgp_dn42_xuu
neighbor 172.22.141.142 as 64737</title>
<ellipse fill="none" stroke="blue" cx="1675.08" cy="-136.87" rx="147.156" ry="26.7407"/>
<text text-anchor="middle" x="1675.08" y="-140.67" font-family="Times,serif" font-size="14.00">bgp_dn42_xuu</text>
<text text-anchor="middle" x="1675.08" y="-125.67" font-family="Times,serif" font-size="14.00">neighbor 172.22.141.142 as 64737</text>
</g>
<!-- table_ext_dn42&#45;&gt;bgp_dn42_xuu
neighbor 172.22.141.142 as 64737 -->
<g id="edge9" class="edge"><title>table_ext_dn42&#45;&gt;bgp_dn42_xuu
neighbor 172.22.141.142 as 64737</title>
<path fill="none" stroke="black" d="M1377.26,-231.546C1434.02,-229.462 1517.14,-221.785 1585.08,-196.74 1602.8,-190.208 1620.57,-179.648 1635.58,-169.262"/>
<polygon fill="black" stroke="black" points="1637.97,-171.856 1644.08,-163.199 1633.91,-166.157 1637.97,-171.856"/>
<text text-anchor="middle" x="1636.58" y="-185.54" font-family="Times,serif" font-size="14.00">filtered</text>
</g>
<!-- bgp_dn42_feuerrot
neighbor 172.22.251.220 as 76140 -->
<g id="node10" class="node"><title>bgp_dn42_feuerrot
neighbor 172.22.251.220 as 76140</title>
<ellipse fill="none" stroke="blue" cx="1987.08" cy="-136.87" rx="147.156" ry="26.7407"/>
<text text-anchor="middle" x="1987.08" y="-140.67" font-family="Times,serif" font-size="14.00">bgp_dn42_feuerrot</text>
<text text-anchor="middle" x="1987.08" y="-125.67" font-family="Times,serif" font-size="14.00">neighbor 172.22.251.220 as 76140</text>
</g>
<!-- table_ext_dn42&#45;&gt;bgp_dn42_feuerrot
neighbor 172.22.251.220 as 76140 -->
<g id="edge10" class="edge"><title>table_ext_dn42&#45;&gt;bgp_dn42_feuerrot
neighbor 172.22.251.220 as 76140</title>
<path fill="none" stroke="black" d="M1377.4,-230.737C1503.83,-228.3 1774.77,-220.411 1865.08,-196.74 1889.76,-190.271 1915.44,-178.71 1936.83,-167.536"/>
<polygon fill="black" stroke="black" points="1938.55,-170.586 1945.72,-162.787 1935.25,-164.412 1938.55,-170.586"/>
<text text-anchor="middle" x="1926.58" y="-185.54" font-family="Times,serif" font-size="14.00">filtered</text>
</g>
<!-- bgp_dn42_sheldon
neighbor 172.22.120.1 as 64720&#45;&gt;table_ext_dn42 -->
<g id="edge11" class="edge"><title>bgp_dn42_sheldon
neighbor 172.22.120.1 as 64720&#45;&gt;table_ext_dn42</title>
<path fill="none" stroke="black" d="M1366.44,-163.839C1362.93,-174.609 1357.91,-186.867 1351.08,-196.74 1348.14,-200.996 1344.57,-205.066 1340.78,-208.828"/>
<polygon fill="black" stroke="black" points="1338.35,-206.309 1333.35,-215.65 1343.09,-211.465 1338.35,-206.309"/>
<text text-anchor="middle" x="1388.58" y="-185.54" font-family="Times,serif" font-size="14.00">filter dn42</text>
</g>
<!-- bgp_dn42_mwd
neighbor 172.23.227.1 as 4242420002&#45;&gt;table_ext_dn42 -->
<g id="edge12" class="edge"><title>bgp_dn42_mwd
neighbor 172.23.227.1 as 4242420002&#45;&gt;table_ext_dn42</title>
<path fill="none" stroke="black" d="M840.765,-158.601C898.586,-170.704 973.866,-185.712 1041.08,-196.74 1108.56,-207.812 1186.01,-217.548 1240.6,-223.922"/>
<polygon fill="black" stroke="black" points="1240.52,-227.436 1250.86,-225.112 1241.33,-220.483 1240.52,-227.436"/>
<text text-anchor="middle" x="1069.58" y="-185.54" font-family="Times,serif" font-size="14.00">filter dn42</text>
</g>
<!-- bgp_dn42_sammy
neighbor 172.22.247.128 as 76175&#45;&gt;table_ext_dn42 -->
<g id="edge13" class="edge"><title>bgp_dn42_sammy
neighbor 172.22.247.128 as 76175&#45;&gt;table_ext_dn42</title>
<path fill="none" stroke="black" d="M1131.39,-161.457C1172.87,-177.681 1227.12,-198.9 1265.12,-213.761"/>
<polygon fill="black" stroke="black" points="1264.3,-217.202 1274.89,-217.585 1266.85,-210.683 1264.3,-217.202"/>
<text text-anchor="middle" x="1248.58" y="-185.54" font-family="Times,serif" font-size="14.00">filter dn42</text>
</g>
<!-- bgp_dn42_xuu
neighbor 172.22.141.142 as 64737&#45;&gt;table_ext_dn42 -->
<g id="edge14" class="edge"><title>bgp_dn42_xuu
neighbor 172.22.141.142 as 64737&#45;&gt;table_ext_dn42</title>
<path fill="none" stroke="black" d="M1592.49,-159.168C1523.67,-176.918 1427.47,-201.724 1367.26,-217.252"/>
<polygon fill="black" stroke="black" points="1366.36,-213.87 1357.55,-219.756 1368.11,-220.648 1366.36,-213.87"/>
<text text-anchor="middle" x="1532.58" y="-185.54" font-family="Times,serif" font-size="14.00">filter dn42</text>
</g>
<!-- bgp_dn42_feuerrot
neighbor 172.22.251.220 as 76140&#45;&gt;table_ext_dn42 -->
<g id="edge15" class="edge"><title>bgp_dn42_feuerrot
neighbor 172.22.251.220 as 76140&#45;&gt;table_ext_dn42</title>
<path fill="none" stroke="black" d="M1890.82,-157.244C1825.85,-169.815 1738.06,-185.828 1660.08,-196.74 1565.1,-210.032 1454.88,-220.217 1384.13,-226.087"/>
<polygon fill="black" stroke="black" points="1383.67,-222.613 1373.99,-226.921 1384.24,-229.59 1383.67,-222.613"/>
<text text-anchor="middle" x="1788.58" y="-185.54" font-family="Times,serif" font-size="14.00">filter dn42</text>
</g>
<!-- device_device1 -->
<g id="node11" class="node"><title>device_device1</title>
<ellipse fill="none" stroke="blue" cx="1495.08" cy="-357.037" rx="66.8882" ry="18"/>
<text text-anchor="middle" x="1495.08" y="-353.337" font-family="Times,serif" font-size="14.00">device_device1</text>
</g>
<!-- direct_direct1
tun.sheldon
tun.howard
tun.damogran
eth1
tun.server -->
<g id="node12" class="node"><title>direct_direct1
tun.sheldon
tun.howard
tun.damogran
eth1
tun.server</title>
<ellipse fill="none" stroke="blue" cx="217.082" cy="-357.037" rx="66.4361" ry="69.0935"/>
<text text-anchor="middle" x="217.082" y="-390.837" font-family="Times,serif" font-size="14.00">direct_direct1</text>
<text text-anchor="middle" x="217.082" y="-375.837" font-family="Times,serif" font-size="14.00">tun.sheldon</text>
<text text-anchor="middle" x="217.082" y="-360.837" font-family="Times,serif" font-size="14.00">tun.howard</text>
<text text-anchor="middle" x="217.082" y="-345.837" font-family="Times,serif" font-size="14.00">tun.damogran</text>
<text text-anchor="middle" x="217.082" y="-330.837" font-family="Times,serif" font-size="14.00">eth1</text>
<text text-anchor="middle" x="217.082" y="-315.837" font-family="Times,serif" font-size="14.00">tun.server</text>
</g>
<!-- direct_direct1
tun.sheldon
tun.howard
tun.damogran
eth1
tun.server&#45;&gt;table_prauscher -->
<g id="edge16" class="edge"><title>direct_direct1
tun.sheldon
tun.howard
tun.damogran
eth1
tun.server&#45;&gt;table_prauscher</title>
<path fill="none" stroke="black" d="M217.082,-287.737C217.082,-278.408 217.082,-269.305 217.082,-261.311"/>
<polygon fill="black" stroke="black" points="220.582,-261.181 217.082,-251.181 213.582,-261.181 220.582,-261.181"/>
</g>
<!-- static_static1
172.22.119.0/25 reject
172.22.153.0/24 reject -->
<g id="node13" class="node"><title>static_static1
172.22.119.0/25 reject
172.22.153.0/24 reject</title>
<ellipse fill="none" stroke="blue" cx="1311.08" cy="-357.037" rx="98.9899" ry="37.4533"/>
<text text-anchor="middle" x="1311.08" y="-368.337" font-family="Times,serif" font-size="14.00">static_static1</text>
<text text-anchor="middle" x="1311.08" y="-353.337" font-family="Times,serif" font-size="14.00">172.22.119.0/25 reject</text>
<text text-anchor="middle" x="1311.08" y="-338.337" font-family="Times,serif" font-size="14.00">172.22.153.0/24 reject</text>
</g>
<!-- static_static1
172.22.119.0/25 reject
172.22.153.0/24 reject&#45;&gt;table_ext_dn42 -->
<g id="edge17" class="edge"><title>static_static1
172.22.119.0/25 reject
172.22.153.0/24 reject&#45;&gt;table_ext_dn42</title>
<path fill="none" stroke="black" d="M1311.08,-319.344C1311.08,-300.759 1311.08,-278.567 1311.08,-261.435"/>
<polygon fill="black" stroke="black" points="1314.58,-260.997 1311.08,-250.997 1307.58,-260.997 1314.58,-260.997"/>
</g>
</g>
</svg>
