<?xml version="1.0" encoding="UTF-8" standalone="no"?>
<!DOCTYPE svg PUBLIC "-//W3C//DTD SVG 1.1//EN"
 "http://www.w3.org/Graphics/SVG/1.1/DTD/svg11.dtd">
<!-- Generated by graphviz version 2.38.0 (20140413.2041)
 -->
<!-- Title: %3 Pages: 1 -->
<svg width="1766pt" height="456pt"
 viewBox="0.00 0.00 1766.48 455.55" xmlns="http://www.w3.org/2000/svg" xmlns:xlink="http://www.w3.org/1999/xlink">
<g id="graph0" class="graph" transform="scale(1 1) rotate(0) translate(4 451.546)">
<title>%3</title>
<polygon fill="white" stroke="none" points="-4,4 -4,-451.546 1762.48,-451.546 1762.48,4 -4,4"/>
<text text-anchor="middle" x="879.241" y="-7.8" font-family="Times,serif" font-size="14.00">Router 172.22.120.1</text>
<!-- table_default -->
<g id="node1" class="node"><title>table_default</title>
<ellipse fill="none" stroke="red" cx="493.304" cy="-136.87" rx="57.3905" ry="18"/>
<text text-anchor="middle" x="493.304" y="-133.17" font-family="Times,serif" font-size="14.00">table_default</text>
</g>
<!-- kernel_kernel1 -->
<g id="node2" class="node"><title>kernel_kernel1</title>
<ellipse fill="none" stroke="blue" cx="493.304" cy="-41" rx="63.0888" ry="18"/>
<text text-anchor="middle" x="493.304" y="-37.3" font-family="Times,serif" font-size="14.00">kernel_kernel1</text>
</g>
<!-- table_default&#45;&gt;kernel_kernel1 -->
<g id="edge1" class="edge"><title>table_default&#45;&gt;kernel_kernel1</title>
<path fill="none" stroke="black" d="M478.738,-119.208C470.395,-107.602 462.461,-91.6385 467.304,-77 468.431,-73.5909 470.034,-70.2434 471.896,-67.0518"/>
<polygon fill="black" stroke="black" points="474.946,-68.7902 477.657,-58.5479 469.151,-64.8646 474.946,-68.7902"/>
<text text-anchor="middle" x="486.804" y="-80.8" font-family="Times,serif" font-size="14.00">filtered</text>
</g>
<!-- kernel_kernel1&#45;&gt;table_default -->
<g id="edge2" class="edge"><title>kernel_kernel1&#45;&gt;table_default</title>
<path fill="none" stroke="black" d="M501.038,-59.1041C503.187,-64.6911 505.226,-71.003 506.304,-77 508.2,-87.5512 506.498,-99.0828 503.773,-109.122"/>
<polygon fill="black" stroke="black" points="500.347,-108.349 500.672,-118.939 507.022,-110.458 500.347,-108.349"/>
</g>
<!-- table_prauscher -->
<g id="node3" class="node"><title>table_prauscher</title>
<ellipse fill="none" stroke="red" cx="209.304" cy="-232.74" rx="68.4888" ry="18"/>
<text text-anchor="middle" x="209.304" y="-229.04" font-family="Times,serif" font-size="14.00">table_prauscher</text>
</g>
<!-- table_prauscher&#45;&gt;table_default -->
<g id="edge3" class="edge"><title>table_prauscher&#45;&gt;table_default</title>
<path fill="none" stroke="black" d="M253.449,-218.975C297.702,-205.944 367.646,-184.707 427.304,-163.74 434.814,-161.1 442.744,-158.143 450.4,-155.197"/>
<polygon fill="black" stroke="black" points="451.853,-158.387 459.901,-151.496 449.312,-151.865 451.853,-158.387"/>
</g>
<!-- ospf_ospf1
172.22.120.0: tun.rajesh tun.howard tun.damogran -->
<g id="node4" class="node"><title>ospf_ospf1
172.22.120.0: tun.rajesh tun.howard tun.damogran</title>
<ellipse fill="none" stroke="blue" cx="209.304" cy="-136.87" rx="209.107" ry="26.7407"/>
<text text-anchor="middle" x="209.304" y="-140.67" font-family="Times,serif" font-size="14.00">ospf_ospf1</text>
<text text-anchor="middle" x="209.304" y="-125.67" font-family="Times,serif" font-size="14.00">172.22.120.0: tun.rajesh tun.howard tun.damogran</text>
</g>
<!-- table_prauscher&#45;&gt;ospf_ospf1
172.22.120.0: tun.rajesh tun.howard tun.damogran -->
<g id="edge4" class="edge"><title>table_prauscher&#45;&gt;ospf_ospf1
172.22.120.0: tun.rajesh tun.howard tun.damogran</title>
<path fill="none" stroke="black" d="M203.94,-214.523C202.704,-203.219 202.294,-188.009 202.712,-174.118"/>
<polygon fill="black" stroke="black" points="206.221,-173.991 203.192,-163.839 199.229,-173.665 206.221,-173.991"/>
</g>
<!-- ospf_ospf1
172.22.120.0: tun.rajesh tun.howard tun.damogran&#45;&gt;table_prauscher -->
<g id="edge5" class="edge"><title>ospf_ospf1
172.22.120.0: tun.rajesh tun.howard tun.damogran&#45;&gt;table_prauscher</title>
<path fill="none" stroke="black" d="M215.415,-163.839C216.238,-176.466 216.265,-191.64 215.499,-204.439"/>
<polygon fill="black" stroke="black" points="212.001,-204.269 214.668,-214.523 218.977,-204.844 212.001,-204.269"/>
</g>
<!-- table_ext_dn42 -->
<g id="node5" class="node"><title>table_ext_dn42</title>
<ellipse fill="none" stroke="red" cx="1079.3" cy="-232.74" rx="66.0889" ry="18"/>
<text text-anchor="middle" x="1079.3" y="-229.04" font-family="Times,serif" font-size="14.00">table_ext_dn42</text>
</g>
<!-- table_ext_dn42&#45;&gt;table_default -->
<g id="edge6" class="edge"><title>table_ext_dn42&#45;&gt;table_default</title>
<path fill="none" stroke="black" d="M1013.95,-229.608C914.095,-224.93 718.381,-210.132 559.304,-163.74 551.324,-161.413 542.961,-158.513 534.972,-155.505"/>
<polygon fill="black" stroke="black" points="536.053,-152.17 525.464,-151.812 533.519,-158.695 536.053,-152.17"/>
<text text-anchor="middle" x="728.804" y="-185.54" font-family="Times,serif" font-size="14.00">filter dn42</text>
</g>
<!-- bgp_dn42_rajesh
neighbor 172.22.120.2 as 64720 -->
<g id="node6" class="node"><title>bgp_dn42_rajesh
neighbor 172.22.120.2 as 64720</title>
<ellipse fill="none" stroke="blue" cx="1017.3" cy="-136.87" rx="137.358" ry="26.7407"/>
<text text-anchor="middle" x="1017.3" y="-140.67" font-family="Times,serif" font-size="14.00">bgp_dn42_rajesh</text>
<text text-anchor="middle" x="1017.3" y="-125.67" font-family="Times,serif" font-size="14.00">neighbor 172.22.120.2 as 64720</text>
</g>
<!-- table_ext_dn42&#45;&gt;bgp_dn42_rajesh
neighbor 172.22.120.2 as 64720 -->
<g id="edge7" class="edge"><title>table_ext_dn42&#45;&gt;bgp_dn42_rajesh
neighbor 172.22.120.2 as 64720</title>
<path fill="none" stroke="black" d="M1041.39,-217.897C1032.28,-212.698 1023.64,-205.782 1018.3,-196.74 1014.29,-189.947 1012.61,-181.899 1012.21,-173.97"/>
<polygon fill="black" stroke="black" points="1015.72,-173.777 1012.35,-163.732 1008.72,-173.684 1015.72,-173.777"/>
<text text-anchor="middle" x="1037.8" y="-185.54" font-family="Times,serif" font-size="14.00">filtered</text>
</g>
<!-- bgp_dn42_felicitus
neighbor 172.22.117.1 as 64717 -->
<g id="node7" class="node"><title>bgp_dn42_felicitus
neighbor 172.22.117.1 as 64717</title>
<ellipse fill="none" stroke="blue" cx="1621.3" cy="-136.87" rx="137.358" ry="26.7407"/>
<text text-anchor="middle" x="1621.3" y="-140.67" font-family="Times,serif" font-size="14.00">bgp_dn42_felicitus</text>
<text text-anchor="middle" x="1621.3" y="-125.67" font-family="Times,serif" font-size="14.00">neighbor 172.22.117.1 as 64717</text>
</g>
<!-- table_ext_dn42&#45;&gt;bgp_dn42_felicitus
neighbor 172.22.117.1 as 64717 -->
<g id="edge8" class="edge"><title>table_ext_dn42&#45;&gt;bgp_dn42_felicitus
neighbor 172.22.117.1 as 64717</title>
<path fill="none" stroke="black" d="M1137.85,-224.276C1187.58,-217.722 1260.77,-207.567 1324.3,-196.74 1390.07,-185.534 1463.62,-170.971 1521.07,-159.133"/>
<polygon fill="black" stroke="black" points="1521.79,-162.558 1530.88,-157.107 1520.37,-155.703 1521.79,-162.558"/>
<text text-anchor="middle" x="1425.8" y="-185.54" font-family="Times,serif" font-size="14.00">filtered</text>
</g>
<!-- bgp_dn42_barnslig
neighbor 172.22.119.193 as 64753 -->
<g id="node8" class="node"><title>bgp_dn42_barnslig
neighbor 172.22.119.193 as 64753</title>
<ellipse fill="none" stroke="blue" cx="715.304" cy="-136.87" rx="147.156" ry="26.7407"/>
<text text-anchor="middle" x="715.304" y="-140.67" font-family="Times,serif" font-size="14.00">bgp_dn42_barnslig</text>
<text text-anchor="middle" x="715.304" y="-125.67" font-family="Times,serif" font-size="14.00">neighbor 172.22.119.193 as 64753</text>
</g>
<!-- table_ext_dn42&#45;&gt;bgp_dn42_barnslig
neighbor 172.22.119.193 as 64753 -->
<g id="edge9" class="edge"><title>table_ext_dn42&#45;&gt;bgp_dn42_barnslig
neighbor 172.22.119.193 as 64753</title>
<path fill="none" stroke="black" d="M1032.83,-219.756C976.362,-205.193 879.73,-180.273 807.862,-161.74"/>
<polygon fill="black" stroke="black" points="808.45,-158.277 797.892,-159.168 806.702,-165.055 808.45,-158.277"/>
<text text-anchor="middle" x="960.804" y="-185.54" font-family="Times,serif" font-size="14.00">filtered</text>
</g>
<!-- bgp_dn42_vutral
neighbor 172.22.187.253 as 64787 -->
<g id="node9" class="node"><title>bgp_dn42_vutral
neighbor 172.22.187.253 as 64787</title>
<ellipse fill="none" stroke="blue" cx="1319.3" cy="-136.87" rx="147.156" ry="26.7407"/>
<text text-anchor="middle" x="1319.3" y="-140.67" font-family="Times,serif" font-size="14.00">bgp_dn42_vutral</text>
<text text-anchor="middle" x="1319.3" y="-125.67" font-family="Times,serif" font-size="14.00">neighbor 172.22.187.253 as 64787</text>
</g>
<!-- table_ext_dn42&#45;&gt;bgp_dn42_vutral
neighbor 172.22.187.253 as 64787 -->
<g id="edge10" class="edge"><title>table_ext_dn42&#45;&gt;bgp_dn42_vutral
neighbor 172.22.187.253 as 64787</title>
<path fill="none" stroke="black" d="M1143.94,-228.496C1179.92,-224.479 1224.54,-215.711 1260.3,-196.74 1272.21,-190.427 1283.26,-180.919 1292.5,-171.375"/>
<polygon fill="black" stroke="black" points="1295.3,-173.498 1299.5,-163.773 1290.15,-168.754 1295.3,-173.498"/>
<text text-anchor="middle" x="1300.8" y="-185.54" font-family="Times,serif" font-size="14.00">filtered</text>
</g>
<!-- bgp_dn42_rajesh
neighbor 172.22.120.2 as 64720&#45;&gt;table_ext_dn42 -->
<g id="edge11" class="edge"><title>bgp_dn42_rajesh
neighbor 172.22.120.2 as 64720&#45;&gt;table_ext_dn42</title>
<path fill="none" stroke="black" d="M1043.32,-163.642C1048.32,-169.329 1053.26,-175.52 1057.3,-181.74 1061.96,-188.894 1066.06,-197.198 1069.42,-204.958"/>
<polygon fill="black" stroke="black" points="1066.25,-206.439 1073.27,-214.371 1072.72,-203.79 1066.25,-206.439"/>
<text text-anchor="middle" x="1094.8" y="-185.54" font-family="Times,serif" font-size="14.00">filter dn42</text>
</g>
<!-- bgp_dn42_felicitus
neighbor 172.22.117.1 as 64717&#45;&gt;table_ext_dn42 -->
<g id="edge12" class="edge"><title>bgp_dn42_felicitus
neighbor 172.22.117.1 as 64717&#45;&gt;table_ext_dn42</title>
<path fill="none" stroke="black" d="M1563.76,-161.372C1530.79,-173.864 1488.34,-188.338 1449.3,-196.74 1349.15,-218.301 1230.89,-226.581 1155.52,-229.76"/>
<polygon fill="black" stroke="black" points="1155.03,-226.277 1145.18,-230.175 1155.31,-233.271 1155.03,-226.277"/>
<text text-anchor="middle" x="1535.8" y="-185.54" font-family="Times,serif" font-size="14.00">filter dn42</text>
</g>
<!-- bgp_dn42_barnslig
neighbor 172.22.119.193 as 64753&#45;&gt;table_ext_dn42 -->
<g id="edge13" class="edge"><title>bgp_dn42_barnslig
neighbor 172.22.119.193 as 64753&#45;&gt;table_ext_dn42</title>
<path fill="none" stroke="black" d="M754.143,-162.797C774.801,-174.916 801.084,-188.591 826.304,-196.74 884.353,-215.498 953.079,-224.203 1004.24,-228.243"/>
<polygon fill="black" stroke="black" points="1004,-231.734 1014.23,-228.99 1004.52,-224.754 1004,-231.734"/>
<text text-anchor="middle" x="854.804" y="-185.54" font-family="Times,serif" font-size="14.00">filter dn42</text>
</g>
<!-- bgp_dn42_vutral
neighbor 172.22.187.253 as 64787&#45;&gt;table_ext_dn42 -->
<g id="edge14" class="edge"><title>bgp_dn42_vutral
neighbor 172.22.187.253 as 64787&#45;&gt;table_ext_dn42</title>
<path fill="none" stroke="black" d="M1254.34,-161.026C1236.44,-167.565 1217.07,-174.795 1199.3,-181.74 1173.65,-191.77 1145.17,-203.602 1122.41,-213.238"/>
<polygon fill="black" stroke="black" points="1120.86,-210.093 1113.02,-217.222 1123.59,-216.536 1120.86,-210.093"/>
<text text-anchor="middle" x="1227.8" y="-185.54" font-family="Times,serif" font-size="14.00">filter dn42</text>
</g>
<!-- device_device1 -->
<g id="node10" class="node"><title>device_device1</title>
<ellipse fill="none" stroke="blue" cx="1263.3" cy="-367.643" rx="66.8882" ry="18"/>
<text text-anchor="middle" x="1263.3" y="-363.943" font-family="Times,serif" font-size="14.00">device_device1</text>
</g>
<!-- direct_direct1
tun.rajesh
tun.howard
tun.damogran
tun.athene
tun0
tun1 -->
<g id="node11" class="node"><title>direct_direct1
tun.rajesh
tun.howard
tun.damogran
tun.athene
tun0
tun1</title>
<ellipse fill="none" stroke="blue" cx="209.304" cy="-367.643" rx="66.4361" ry="79.8063"/>
<text text-anchor="middle" x="209.304" y="-408.943" font-family="Times,serif" font-size="14.00">direct_direct1</text>
<text text-anchor="middle" x="209.304" y="-393.943" font-family="Times,serif" font-size="14.00">tun.rajesh</text>
<text text-anchor="middle" x="209.304" y="-378.943" font-family="Times,serif" font-size="14.00">tun.howard</text>
<text text-anchor="middle" x="209.304" y="-363.943" font-family="Times,serif" font-size="14.00">tun.damogran</text>
<text text-anchor="middle" x="209.304" y="-348.943" font-family="Times,serif" font-size="14.00">tun.athene</text>
<text text-anchor="middle" x="209.304" y="-333.943" font-family="Times,serif" font-size="14.00">tun0</text>
<text text-anchor="middle" x="209.304" y="-318.943" font-family="Times,serif" font-size="14.00">tun1</text>
</g>
<!-- direct_direct1
tun.rajesh
tun.howard
tun.damogran
tun.athene
tun0
tun1&#45;&gt;table_prauscher -->
<g id="edge15" class="edge"><title>direct_direct1
tun.rajesh
tun.howard
tun.damogran
tun.athene
tun0
tun1&#45;&gt;table_prauscher</title>
<path fill="none" stroke="black" d="M209.304,-287.414C209.304,-277.936 209.304,-268.818 209.304,-260.872"/>
<polygon fill="black" stroke="black" points="212.804,-260.839 209.304,-250.839 205.804,-260.839 212.804,-260.839"/>
</g>
<!-- static_static1
172.22.112.0/24 reject
172.22.120.0/26 reject
172.22.153.0/24 reject -->
<g id="node12" class="node"><title>static_static1
172.22.112.0/24 reject
172.22.120.0/26 reject
172.22.153.0/24 reject</title>
<ellipse fill="none" stroke="blue" cx="1079.3" cy="-367.643" rx="98.9899" ry="48.1667"/>
<text text-anchor="middle" x="1079.3" y="-386.443" font-family="Times,serif" font-size="14.00">static_static1</text>
<text text-anchor="middle" x="1079.3" y="-371.443" font-family="Times,serif" font-size="14.00">172.22.112.0/24 reject</text>
<text text-anchor="middle" x="1079.3" y="-356.443" font-family="Times,serif" font-size="14.00">172.22.120.0/26 reject</text>
<text text-anchor="middle" x="1079.3" y="-341.443" font-family="Times,serif" font-size="14.00">172.22.153.0/24 reject</text>
</g>
<!-- static_static1
172.22.112.0/24 reject
172.22.120.0/26 reject
172.22.153.0/24 reject&#45;&gt;table_ext_dn42 -->
<g id="edge16" class="edge"><title>static_static1
172.22.112.0/24 reject
172.22.120.0/26 reject
172.22.153.0/24 reject&#45;&gt;table_ext_dn42</title>
<path fill="none" stroke="black" d="M1079.3,-319.412C1079.3,-299.827 1079.3,-277.805 1079.3,-260.993"/>
<polygon fill="black" stroke="black" points="1082.8,-260.775 1079.3,-250.775 1075.8,-260.775 1082.8,-260.775"/>
</g>
</g>
</svg>
